<mxfile host="app.diagrams.net" modified="2023-10-09T16:24:23.600Z" agent="Mozilla/5.0 (Windows NT 10.0; Win64; x64; rv:109.0) Gecko/20100101 Firefox/119.0" etag="IhqX0XyG_yYrCMqO4UbB" version="22.0.4" type="device">
  <diagram id="C5RBs43oDa-KdzZeNtuy" name="Page-1">
    <mxGraphModel dx="1434" dy="774" grid="1" gridSize="10" guides="1" tooltips="1" connect="1" arrows="1" fold="1" page="1" pageScale="1" pageWidth="827" pageHeight="1169" math="0" shadow="0">
      <root>
        <mxCell id="WIyWlLk6GJQsqaUBKTNV-0" />
        <mxCell id="WIyWlLk6GJQsqaUBKTNV-1" parent="WIyWlLk6GJQsqaUBKTNV-0" />
        <mxCell id="BqK-K7UJXPuj0kD6KoVM-7" style="edgeStyle=orthogonalEdgeStyle;rounded=0;orthogonalLoop=1;jettySize=auto;html=1;entryX=0.5;entryY=0;entryDx=0;entryDy=0;" edge="1" parent="WIyWlLk6GJQsqaUBKTNV-1" source="WIyWlLk6GJQsqaUBKTNV-3" target="BqK-K7UJXPuj0kD6KoVM-3">
          <mxGeometry relative="1" as="geometry" />
        </mxCell>
        <mxCell id="WIyWlLk6GJQsqaUBKTNV-3" value="Start" style="rounded=1;whiteSpace=wrap;html=1;fontSize=12;glass=0;strokeWidth=1;shadow=0;fillColor=#ffe6cc;strokeColor=#d79b00;" parent="WIyWlLk6GJQsqaUBKTNV-1" vertex="1">
          <mxGeometry x="160" y="20" width="120" height="40" as="geometry" />
        </mxCell>
        <mxCell id="BqK-K7UJXPuj0kD6KoVM-8" style="edgeStyle=orthogonalEdgeStyle;rounded=0;orthogonalLoop=1;jettySize=auto;html=1;entryX=0;entryY=0.5;entryDx=0;entryDy=0;" edge="1" parent="WIyWlLk6GJQsqaUBKTNV-1" source="WIyWlLk6GJQsqaUBKTNV-6" target="BqK-K7UJXPuj0kD6KoVM-2">
          <mxGeometry relative="1" as="geometry" />
        </mxCell>
        <mxCell id="BqK-K7UJXPuj0kD6KoVM-16" style="edgeStyle=orthogonalEdgeStyle;rounded=0;orthogonalLoop=1;jettySize=auto;html=1;entryX=0.5;entryY=0;entryDx=0;entryDy=0;" edge="1" parent="WIyWlLk6GJQsqaUBKTNV-1" source="WIyWlLk6GJQsqaUBKTNV-6" target="BqK-K7UJXPuj0kD6KoVM-15">
          <mxGeometry relative="1" as="geometry" />
        </mxCell>
        <mxCell id="WIyWlLk6GJQsqaUBKTNV-6" value="&lt;div&gt;Is current&lt;/div&gt;&lt;div&gt;square the last&lt;/div&gt;&lt;div&gt;square?&lt;/div&gt;" style="rhombus;whiteSpace=wrap;html=1;shadow=0;fontFamily=Helvetica;fontSize=12;align=center;strokeWidth=1;spacing=6;spacingTop=-4;fillColor=#dae8fc;strokeColor=#6c8ebf;" parent="WIyWlLk6GJQsqaUBKTNV-1" vertex="1">
          <mxGeometry x="150" y="300" width="140" height="130" as="geometry" />
        </mxCell>
        <mxCell id="BqK-K7UJXPuj0kD6KoVM-12" style="edgeStyle=orthogonalEdgeStyle;rounded=0;orthogonalLoop=1;jettySize=auto;html=1;exitX=0.5;exitY=0;exitDx=0;exitDy=0;" edge="1" parent="WIyWlLk6GJQsqaUBKTNV-1" source="BqK-K7UJXPuj0kD6KoVM-2">
          <mxGeometry relative="1" as="geometry">
            <mxPoint x="220" y="220" as="targetPoint" />
            <mxPoint x="480" y="315" as="sourcePoint" />
            <Array as="points">
              <mxPoint x="480" y="220" />
            </Array>
          </mxGeometry>
        </mxCell>
        <mxCell id="BqK-K7UJXPuj0kD6KoVM-2" value="Append possible moves that the piece on the current square can do" style="rounded=0;whiteSpace=wrap;html=1;fillColor=#e1d5e7;strokeColor=#9673a6;" vertex="1" parent="WIyWlLk6GJQsqaUBKTNV-1">
          <mxGeometry x="420" y="335" width="120" height="60" as="geometry" />
        </mxCell>
        <mxCell id="BqK-K7UJXPuj0kD6KoVM-6" style="edgeStyle=orthogonalEdgeStyle;rounded=0;orthogonalLoop=1;jettySize=auto;html=1;entryX=0.5;entryY=0;entryDx=0;entryDy=0;" edge="1" parent="WIyWlLk6GJQsqaUBKTNV-1" source="BqK-K7UJXPuj0kD6KoVM-3" target="WIyWlLk6GJQsqaUBKTNV-6">
          <mxGeometry relative="1" as="geometry" />
        </mxCell>
        <mxCell id="BqK-K7UJXPuj0kD6KoVM-3" value="Initialise an empty array of psuedolegal moves" style="rounded=0;whiteSpace=wrap;html=1;fillColor=#e1d5e7;strokeColor=#9673a6;" vertex="1" parent="WIyWlLk6GJQsqaUBKTNV-1">
          <mxGeometry x="160" y="120" width="120" height="60" as="geometry" />
        </mxCell>
        <mxCell id="BqK-K7UJXPuj0kD6KoVM-9" value="No" style="text;html=1;strokeColor=none;fillColor=none;align=center;verticalAlign=middle;whiteSpace=wrap;rounded=0;" vertex="1" parent="WIyWlLk6GJQsqaUBKTNV-1">
          <mxGeometry x="310" y="330" width="60" height="30" as="geometry" />
        </mxCell>
        <mxCell id="BqK-K7UJXPuj0kD6KoVM-13" value="Go to the next square" style="text;html=1;strokeColor=none;fillColor=none;align=center;verticalAlign=middle;whiteSpace=wrap;rounded=0;" vertex="1" parent="WIyWlLk6GJQsqaUBKTNV-1">
          <mxGeometry x="310" y="230" width="80" height="30" as="geometry" />
        </mxCell>
        <mxCell id="BqK-K7UJXPuj0kD6KoVM-35" style="edgeStyle=orthogonalEdgeStyle;rounded=0;orthogonalLoop=1;jettySize=auto;html=1;entryX=0;entryY=0.5;entryDx=0;entryDy=0;" edge="1" parent="WIyWlLk6GJQsqaUBKTNV-1" source="BqK-K7UJXPuj0kD6KoVM-15" target="BqK-K7UJXPuj0kD6KoVM-18">
          <mxGeometry relative="1" as="geometry" />
        </mxCell>
        <mxCell id="BqK-K7UJXPuj0kD6KoVM-15" value="Loop over the squares to get the current position of the king" style="rounded=0;whiteSpace=wrap;html=1;fillColor=#e1d5e7;strokeColor=#9673a6;" vertex="1" parent="WIyWlLk6GJQsqaUBKTNV-1">
          <mxGeometry x="160" y="470" width="120" height="60" as="geometry" />
        </mxCell>
        <mxCell id="BqK-K7UJXPuj0kD6KoVM-17" value="Yes" style="text;html=1;strokeColor=none;fillColor=none;align=center;verticalAlign=middle;whiteSpace=wrap;rounded=0;" vertex="1" parent="WIyWlLk6GJQsqaUBKTNV-1">
          <mxGeometry x="220" y="410" width="60" height="30" as="geometry" />
        </mxCell>
        <mxCell id="BqK-K7UJXPuj0kD6KoVM-36" style="edgeStyle=orthogonalEdgeStyle;rounded=0;orthogonalLoop=1;jettySize=auto;html=1;entryX=0.5;entryY=0;entryDx=0;entryDy=0;" edge="1" parent="WIyWlLk6GJQsqaUBKTNV-1" source="BqK-K7UJXPuj0kD6KoVM-18" target="BqK-K7UJXPuj0kD6KoVM-20">
          <mxGeometry relative="1" as="geometry" />
        </mxCell>
        <mxCell id="BqK-K7UJXPuj0kD6KoVM-18" value="Check if any sliding pieces are looking at the king (pinning)" style="rounded=0;whiteSpace=wrap;html=1;fillColor=#e1d5e7;strokeColor=#9673a6;" vertex="1" parent="WIyWlLk6GJQsqaUBKTNV-1">
          <mxGeometry x="340" y="470" width="120" height="60" as="geometry" />
        </mxCell>
        <mxCell id="BqK-K7UJXPuj0kD6KoVM-20" value="&lt;div&gt;Calculate if the&amp;nbsp;&lt;/div&gt;&lt;div&gt;king is currently&lt;/div&gt;&lt;div&gt;under attack (in check)&lt;br&gt;&lt;/div&gt;" style="rounded=0;whiteSpace=wrap;html=1;fillColor=#e1d5e7;strokeColor=#9673a6;" vertex="1" parent="WIyWlLk6GJQsqaUBKTNV-1">
          <mxGeometry x="340" y="570" width="120" height="60" as="geometry" />
        </mxCell>
        <mxCell id="BqK-K7UJXPuj0kD6KoVM-30" style="edgeStyle=orthogonalEdgeStyle;rounded=0;orthogonalLoop=1;jettySize=auto;html=1;entryX=0.5;entryY=0;entryDx=0;entryDy=0;" edge="1" parent="WIyWlLk6GJQsqaUBKTNV-1" source="BqK-K7UJXPuj0kD6KoVM-23" target="BqK-K7UJXPuj0kD6KoVM-29">
          <mxGeometry relative="1" as="geometry" />
        </mxCell>
        <mxCell id="BqK-K7UJXPuj0kD6KoVM-33" style="edgeStyle=orthogonalEdgeStyle;rounded=0;orthogonalLoop=1;jettySize=auto;html=1;entryX=0;entryY=0.5;entryDx=0;entryDy=0;" edge="1" parent="WIyWlLk6GJQsqaUBKTNV-1" source="BqK-K7UJXPuj0kD6KoVM-23" target="BqK-K7UJXPuj0kD6KoVM-32">
          <mxGeometry relative="1" as="geometry" />
        </mxCell>
        <mxCell id="BqK-K7UJXPuj0kD6KoVM-40" style="edgeStyle=orthogonalEdgeStyle;rounded=0;orthogonalLoop=1;jettySize=auto;html=1;entryX=0;entryY=0.5;entryDx=0;entryDy=0;" edge="1" parent="WIyWlLk6GJQsqaUBKTNV-1" source="BqK-K7UJXPuj0kD6KoVM-23" target="BqK-K7UJXPuj0kD6KoVM-20">
          <mxGeometry relative="1" as="geometry">
            <mxPoint x="260" y="580" as="targetPoint" />
            <Array as="points">
              <mxPoint x="210" y="600" />
            </Array>
          </mxGeometry>
        </mxCell>
        <mxCell id="BqK-K7UJXPuj0kD6KoVM-23" value="&lt;div&gt;Is the current&amp;nbsp;&lt;/div&gt;&lt;div&gt;move the&lt;/div&gt;&lt;div&gt;last move?&lt;/div&gt;" style="rhombus;whiteSpace=wrap;html=1;shadow=0;fontFamily=Helvetica;fontSize=12;align=center;strokeWidth=1;spacing=6;spacingTop=-4;fillColor=#dae8fc;strokeColor=#6c8ebf;" vertex="1" parent="WIyWlLk6GJQsqaUBKTNV-1">
          <mxGeometry x="140" y="710" width="140" height="130" as="geometry" />
        </mxCell>
        <mxCell id="BqK-K7UJXPuj0kD6KoVM-24" value="Loop over the squares" style="text;html=1;strokeColor=none;fillColor=none;align=center;verticalAlign=middle;whiteSpace=wrap;rounded=0;" vertex="1" parent="WIyWlLk6GJQsqaUBKTNV-1">
          <mxGeometry x="150" y="250" width="60" height="30" as="geometry" />
        </mxCell>
        <mxCell id="BqK-K7UJXPuj0kD6KoVM-25" value="Loop over the pseudolegal moves" style="text;html=1;strokeColor=none;fillColor=none;align=center;verticalAlign=middle;whiteSpace=wrap;rounded=0;" vertex="1" parent="WIyWlLk6GJQsqaUBKTNV-1">
          <mxGeometry x="130" y="670" width="60" height="30" as="geometry" />
        </mxCell>
        <mxCell id="BqK-K7UJXPuj0kD6KoVM-29" value="Finish (return the move list)" style="rounded=1;whiteSpace=wrap;html=1;fontSize=12;glass=0;strokeWidth=1;shadow=0;fillColor=#ffe6cc;strokeColor=#d79b00;" vertex="1" parent="WIyWlLk6GJQsqaUBKTNV-1">
          <mxGeometry x="150" y="1240" width="120" height="40" as="geometry" />
        </mxCell>
        <mxCell id="BqK-K7UJXPuj0kD6KoVM-31" value="Yes" style="text;html=1;strokeColor=none;fillColor=none;align=center;verticalAlign=middle;whiteSpace=wrap;rounded=0;" vertex="1" parent="WIyWlLk6GJQsqaUBKTNV-1">
          <mxGeometry x="150" y="850" width="60" height="30" as="geometry" />
        </mxCell>
        <mxCell id="BqK-K7UJXPuj0kD6KoVM-43" style="edgeStyle=orthogonalEdgeStyle;rounded=0;orthogonalLoop=1;jettySize=auto;html=1;entryX=0;entryY=0.5;entryDx=0;entryDy=0;" edge="1" parent="WIyWlLk6GJQsqaUBKTNV-1" source="BqK-K7UJXPuj0kD6KoVM-32" target="BqK-K7UJXPuj0kD6KoVM-42">
          <mxGeometry relative="1" as="geometry" />
        </mxCell>
        <mxCell id="BqK-K7UJXPuj0kD6KoVM-53" style="edgeStyle=orthogonalEdgeStyle;rounded=0;orthogonalLoop=1;jettySize=auto;html=1;entryX=0.5;entryY=0;entryDx=0;entryDy=0;" edge="1" parent="WIyWlLk6GJQsqaUBKTNV-1" source="BqK-K7UJXPuj0kD6KoVM-32" target="BqK-K7UJXPuj0kD6KoVM-47">
          <mxGeometry relative="1" as="geometry" />
        </mxCell>
        <mxCell id="BqK-K7UJXPuj0kD6KoVM-32" value="&lt;div&gt;Is the current&lt;/div&gt;&lt;div&gt;move a king&lt;/div&gt;&lt;div&gt;move?&lt;/div&gt;" style="rhombus;whiteSpace=wrap;html=1;shadow=0;fontFamily=Helvetica;fontSize=12;align=center;strokeWidth=1;spacing=6;spacingTop=-4;fillColor=#dae8fc;strokeColor=#6c8ebf;" vertex="1" parent="WIyWlLk6GJQsqaUBKTNV-1">
          <mxGeometry x="350" y="710" width="140" height="130" as="geometry" />
        </mxCell>
        <mxCell id="BqK-K7UJXPuj0kD6KoVM-34" value="No" style="text;html=1;strokeColor=none;fillColor=none;align=center;verticalAlign=middle;whiteSpace=wrap;rounded=0;" vertex="1" parent="WIyWlLk6GJQsqaUBKTNV-1">
          <mxGeometry x="414" y="850" width="60" height="30" as="geometry" />
        </mxCell>
        <mxCell id="BqK-K7UJXPuj0kD6KoVM-62" style="edgeStyle=orthogonalEdgeStyle;rounded=0;orthogonalLoop=1;jettySize=auto;html=1;entryX=0;entryY=0.5;entryDx=0;entryDy=0;" edge="1" parent="WIyWlLk6GJQsqaUBKTNV-1" source="BqK-K7UJXPuj0kD6KoVM-42" target="BqK-K7UJXPuj0kD6KoVM-60">
          <mxGeometry relative="1" as="geometry">
            <mxPoint x="640" y="960" as="targetPoint" />
            <Array as="points">
              <mxPoint x="640" y="950" />
            </Array>
          </mxGeometry>
        </mxCell>
        <mxCell id="BqK-K7UJXPuj0kD6KoVM-42" value="&lt;div&gt;Is the king under&lt;/div&gt;&lt;div&gt;attack in its new square?&lt;/div&gt;" style="rhombus;whiteSpace=wrap;html=1;shadow=0;fontFamily=Helvetica;fontSize=12;align=center;strokeWidth=1;spacing=6;spacingTop=-4;fillColor=#dae8fc;strokeColor=#6c8ebf;" vertex="1" parent="WIyWlLk6GJQsqaUBKTNV-1">
          <mxGeometry x="570" y="710" width="140" height="130" as="geometry" />
        </mxCell>
        <mxCell id="BqK-K7UJXPuj0kD6KoVM-72" style="edgeStyle=orthogonalEdgeStyle;rounded=0;orthogonalLoop=1;jettySize=auto;html=1;" edge="1" parent="WIyWlLk6GJQsqaUBKTNV-1" source="BqK-K7UJXPuj0kD6KoVM-44">
          <mxGeometry relative="1" as="geometry">
            <mxPoint x="210" y="660" as="targetPoint" />
            <Array as="points">
              <mxPoint x="900" y="660" />
            </Array>
          </mxGeometry>
        </mxCell>
        <mxCell id="BqK-K7UJXPuj0kD6KoVM-44" value="Remove it from the move list." style="rounded=0;whiteSpace=wrap;html=1;fillColor=#e1d5e7;strokeColor=#9673a6;" vertex="1" parent="WIyWlLk6GJQsqaUBKTNV-1">
          <mxGeometry x="840" y="751" width="120" height="60" as="geometry" />
        </mxCell>
        <mxCell id="BqK-K7UJXPuj0kD6KoVM-57" style="edgeStyle=orthogonalEdgeStyle;rounded=0;orthogonalLoop=1;jettySize=auto;html=1;entryX=0.5;entryY=0;entryDx=0;entryDy=0;" edge="1" parent="WIyWlLk6GJQsqaUBKTNV-1" source="BqK-K7UJXPuj0kD6KoVM-47" target="BqK-K7UJXPuj0kD6KoVM-48">
          <mxGeometry relative="1" as="geometry" />
        </mxCell>
        <mxCell id="BqK-K7UJXPuj0kD6KoVM-47" value="&lt;div&gt;Is the king in&lt;/div&gt;&lt;div&gt;check, pinned, or&lt;/div&gt;&lt;div&gt;the move was&lt;/div&gt;&lt;div&gt;&amp;nbsp;en passant?&lt;/div&gt;" style="rhombus;whiteSpace=wrap;html=1;shadow=0;fontFamily=Helvetica;fontSize=12;align=center;strokeWidth=1;spacing=6;spacingTop=-4;fillColor=#dae8fc;strokeColor=#6c8ebf;" vertex="1" parent="WIyWlLk6GJQsqaUBKTNV-1">
          <mxGeometry x="350" y="885" width="140" height="130" as="geometry" />
        </mxCell>
        <mxCell id="BqK-K7UJXPuj0kD6KoVM-66" style="edgeStyle=orthogonalEdgeStyle;rounded=0;orthogonalLoop=1;jettySize=auto;html=1;entryX=0.5;entryY=1;entryDx=0;entryDy=0;" edge="1" parent="WIyWlLk6GJQsqaUBKTNV-1" source="BqK-K7UJXPuj0kD6KoVM-48" target="BqK-K7UJXPuj0kD6KoVM-60">
          <mxGeometry relative="1" as="geometry" />
        </mxCell>
        <mxCell id="BqK-K7UJXPuj0kD6KoVM-69" style="edgeStyle=orthogonalEdgeStyle;rounded=0;orthogonalLoop=1;jettySize=auto;html=1;entryX=1;entryY=0.5;entryDx=0;entryDy=0;" edge="1" parent="WIyWlLk6GJQsqaUBKTNV-1" source="BqK-K7UJXPuj0kD6KoVM-48" target="BqK-K7UJXPuj0kD6KoVM-44">
          <mxGeometry relative="1" as="geometry">
            <Array as="points">
              <mxPoint x="420" y="1220" />
              <mxPoint x="1000" y="1220" />
              <mxPoint x="1000" y="781" />
            </Array>
          </mxGeometry>
        </mxCell>
        <mxCell id="BqK-K7UJXPuj0kD6KoVM-48" value="&lt;div&gt;Does the move&lt;/div&gt;&lt;div&gt;put the king&lt;/div&gt;&lt;div&gt;underattack?&lt;/div&gt;" style="rhombus;whiteSpace=wrap;html=1;shadow=0;fontFamily=Helvetica;fontSize=12;align=center;strokeWidth=1;spacing=6;spacingTop=-4;fillColor=#dae8fc;strokeColor=#6c8ebf;" vertex="1" parent="WIyWlLk6GJQsqaUBKTNV-1">
          <mxGeometry x="350" y="1070" width="140" height="130" as="geometry" />
        </mxCell>
        <mxCell id="BqK-K7UJXPuj0kD6KoVM-51" value="No" style="text;html=1;strokeColor=none;fillColor=none;align=center;verticalAlign=middle;whiteSpace=wrap;rounded=0;" vertex="1" parent="WIyWlLk6GJQsqaUBKTNV-1">
          <mxGeometry x="490" y="1100" width="60" height="30" as="geometry" />
        </mxCell>
        <mxCell id="BqK-K7UJXPuj0kD6KoVM-52" value="Yes" style="text;html=1;strokeColor=none;fillColor=none;align=center;verticalAlign=middle;whiteSpace=wrap;rounded=0;" vertex="1" parent="WIyWlLk6GJQsqaUBKTNV-1">
          <mxGeometry x="450" y="1190" width="60" height="30" as="geometry" />
        </mxCell>
        <mxCell id="BqK-K7UJXPuj0kD6KoVM-54" value="No" style="text;html=1;strokeColor=none;fillColor=none;align=center;verticalAlign=middle;whiteSpace=wrap;rounded=0;" vertex="1" parent="WIyWlLk6GJQsqaUBKTNV-1">
          <mxGeometry x="290" y="750" width="60" height="30" as="geometry" />
        </mxCell>
        <mxCell id="BqK-K7UJXPuj0kD6KoVM-56" value="Yes" style="text;html=1;strokeColor=none;fillColor=none;align=center;verticalAlign=middle;whiteSpace=wrap;rounded=0;" vertex="1" parent="WIyWlLk6GJQsqaUBKTNV-1">
          <mxGeometry x="414" y="1030" width="60" height="30" as="geometry" />
        </mxCell>
        <mxCell id="BqK-K7UJXPuj0kD6KoVM-58" value="Yes" style="text;html=1;strokeColor=none;fillColor=none;align=center;verticalAlign=middle;whiteSpace=wrap;rounded=0;" vertex="1" parent="WIyWlLk6GJQsqaUBKTNV-1">
          <mxGeometry x="720" y="751" width="60" height="30" as="geometry" />
        </mxCell>
        <mxCell id="BqK-K7UJXPuj0kD6KoVM-60" value="Keep it in the move list" style="rounded=0;whiteSpace=wrap;html=1;fillColor=#e1d5e7;strokeColor=#9673a6;" vertex="1" parent="WIyWlLk6GJQsqaUBKTNV-1">
          <mxGeometry x="840" y="920" width="120" height="60" as="geometry" />
        </mxCell>
        <mxCell id="BqK-K7UJXPuj0kD6KoVM-64" value="" style="endArrow=none;html=1;rounded=0;exitX=1;exitY=0.5;exitDx=0;exitDy=0;" edge="1" parent="WIyWlLk6GJQsqaUBKTNV-1" source="BqK-K7UJXPuj0kD6KoVM-47">
          <mxGeometry width="50" height="50" relative="1" as="geometry">
            <mxPoint x="380" y="890" as="sourcePoint" />
            <mxPoint x="640" y="950" as="targetPoint" />
          </mxGeometry>
        </mxCell>
        <mxCell id="BqK-K7UJXPuj0kD6KoVM-65" value="No" style="text;html=1;strokeColor=none;fillColor=none;align=center;verticalAlign=middle;whiteSpace=wrap;rounded=0;" vertex="1" parent="WIyWlLk6GJQsqaUBKTNV-1">
          <mxGeometry x="480" y="920" width="60" height="30" as="geometry" />
        </mxCell>
        <mxCell id="BqK-K7UJXPuj0kD6KoVM-68" value="No" style="text;html=1;strokeColor=none;fillColor=none;align=center;verticalAlign=middle;whiteSpace=wrap;rounded=0;" vertex="1" parent="WIyWlLk6GJQsqaUBKTNV-1">
          <mxGeometry x="650" y="850" width="60" height="30" as="geometry" />
        </mxCell>
        <mxCell id="BqK-K7UJXPuj0kD6KoVM-70" value="Yes" style="text;html=1;strokeColor=none;fillColor=none;align=center;verticalAlign=middle;whiteSpace=wrap;rounded=0;" vertex="1" parent="WIyWlLk6GJQsqaUBKTNV-1">
          <mxGeometry x="500" y="750" width="60" height="30" as="geometry" />
        </mxCell>
        <mxCell id="BqK-K7UJXPuj0kD6KoVM-71" style="edgeStyle=orthogonalEdgeStyle;rounded=0;orthogonalLoop=1;jettySize=auto;html=1;entryX=-0.033;entryY=0.4;entryDx=0;entryDy=0;entryPerimeter=0;" edge="1" parent="WIyWlLk6GJQsqaUBKTNV-1" source="BqK-K7UJXPuj0kD6KoVM-42" target="BqK-K7UJXPuj0kD6KoVM-44">
          <mxGeometry relative="1" as="geometry" />
        </mxCell>
        <mxCell id="BqK-K7UJXPuj0kD6KoVM-74" value="" style="endArrow=none;html=1;rounded=0;exitX=1;exitY=0.5;exitDx=0;exitDy=0;" edge="1" parent="WIyWlLk6GJQsqaUBKTNV-1" source="BqK-K7UJXPuj0kD6KoVM-60">
          <mxGeometry width="50" height="50" relative="1" as="geometry">
            <mxPoint x="550" y="890" as="sourcePoint" />
            <mxPoint x="900" y="660" as="targetPoint" />
            <Array as="points">
              <mxPoint x="1070" y="950" />
              <mxPoint x="1070" y="660" />
            </Array>
          </mxGeometry>
        </mxCell>
        <mxCell id="BqK-K7UJXPuj0kD6KoVM-75" value="Go to the next move" style="text;html=1;strokeColor=none;fillColor=none;align=center;verticalAlign=middle;whiteSpace=wrap;rounded=0;" vertex="1" parent="WIyWlLk6GJQsqaUBKTNV-1">
          <mxGeometry x="700" y="620" width="60" height="30" as="geometry" />
        </mxCell>
      </root>
    </mxGraphModel>
  </diagram>
</mxfile>
